# xmcd
#
# Track frame offsets:
#	150
#	14849
#	32004
#	48291
#	62454
#	80330
#	100110
#	113583
#	128083
#	144936
#
# Disc length: 2143 seconds
# Revision: 2
# Processed by: cddbd v1.5.2PL0 Copyright (c) Steve Scherf et al.
# Submitted via: dBpowerAMP V12.0
#
DISCID=76085d0a
DTITLE=Amanda Wilkinson - Amanda Wilkinson
DYEAR=2007
DGENRE=Country
TTITLE0=Walk Away
TTITLE1=It's Okay To Cry
TTITLE2=Pontiacs
TTITLE3=Something Else
TTITLE4=Hearts Open Slowly
TTITLE5=Gone From Love Too Long
TTITLE6=Life Is A Beautiful Thing
TTITLE7=No More Me And You
TTITLE8=A Man To Me
TTITLE9=The Art Of Letting Go
EXTD=
EXTT0=
EXTT1=
EXTT2=
EXTT3=
EXTT4=
EXTT5=
EXTT6=
EXTT7=
EXTT8=
EXTT9=
PLAYORDER=
